<svg width="32" height="32" viewBox="0 0 32 32" fill="none" xmlns="http://www.w3.org/2000/svg">
<path d="M0 0H32V32H0V0Z" fill="#1F1F1F"/>
<path d="M24.001 27.5853H16.4732V25.8973H26.0778H26.3954L26.5304 25.6098C26.9569 24.7014 27.1908 23.7255 27.2197 22.7236L27.2345 22.2093H26.7199H16.4732V20.5213H26.3599H27.1174L26.8196 19.8247C26.5989 19.3085 26.29 18.8303 25.9279 18.4234C25.1558 17.5533 23.9805 16.8333 22.5556 16.8333H9.3909C7.9661 16.8333 6.79084 17.5531 6.01879 18.4231C5.25399 19.2829 4.72656 20.4593 4.72656 21.6878V22.548C4.72656 27.3163 9.44968 31.2733 15.9732 31.2733C19.4109 31.2733 22.3225 30.1866 24.3268 28.4645L25.3502 27.5853H24.001Z" fill="#00FFB6" stroke="#1F1F1F"/>
<path d="M21.7754 12.2786L22.3754 11.4786H21.3754H16.4997V9.79056H22.5849H22.9936L23.0749 9.39008C23.2684 8.43746 23.2684 7.45567 23.0749 6.50305L22.9936 6.10256H22.5849H16.4997V4.41456H21.3754H22.3754L21.7754 3.61457C20.8662 2.40229 19.5987 1.50681 18.1523 1.05498C16.706 0.603145 15.1541 0.617873 13.7166 1.09707C12.2791 1.57627 11.0288 2.49565 10.1428 3.72496C9.25679 4.95428 8.78003 6.43122 8.78003 7.94656C8.78003 9.46191 9.25679 10.9388 10.1428 12.1682C11.0288 13.3975 12.2791 14.3169 13.7166 14.7961C15.1541 15.2753 16.706 15.29 18.1523 14.8382C19.5987 14.3863 20.8662 13.4908 21.7754 12.2786Z" fill="#00FFB6" stroke="#1F1F1F"/>
</svg>
