<svg width="32" height="32" viewBox="0 0 32 32" fill="none" xmlns="http://www.w3.org/2000/svg">
<path d="M0 0H32V32H0V0Z" fill="#0A0D14"/>
<path d="M16.4732 27.5854H24.001H25.3502L24.3268 28.4646C22.3225 30.1867 19.4109 31.2734 15.9732 31.2734C9.44968 31.2734 4.72656 27.3164 4.72656 22.5481V21.6879C4.72656 20.4595 5.25399 19.2831 6.01879 18.4232C6.79084 17.5533 7.9661 16.8334 9.3909 16.8334H22.5556C23.9805 16.8334 25.1558 17.5534 25.9279 18.4235M16.4732 27.5854L25.9279 18.4235M16.4732 27.5854V25.8974H26.0778H26.3954L26.5304 25.6099C26.9569 24.7015 27.1908 23.7256 27.2197 22.7238L27.2345 22.2094H26.7199H16.4732V20.5214M16.4732 27.5854V20.5214M25.9279 18.4235C26.29 18.8305 26.5989 19.3086 26.8196 19.8248L27.1174 20.5214H26.3599H16.4732M25.9279 18.4235L16.4732 20.5214" fill="#00FFB6" stroke="#0A0D14"/>
<path d="M21.7754 12.2787L22.3754 11.4787H21.3754H16.4997V9.79068H22.5849H22.9936L23.0749 9.3902C23.2684 8.43758 23.2684 7.45579 23.0749 6.50317L22.9936 6.10268H22.5849H16.4997V4.41468H21.3754H22.3754L21.7754 3.61469C20.8662 2.40241 19.5987 1.50693 18.1523 1.0551C16.706 0.603267 15.1541 0.617995 13.7166 1.09719C12.2791 1.57639 11.0288 2.49577 10.1428 3.72509C9.25679 4.9544 8.78003 6.43134 8.78003 7.94668C8.78003 9.46203 9.25679 10.939 10.1428 12.1683C11.0288 13.3976 12.2791 14.317 13.7166 14.7962C15.1541 15.2754 16.706 15.2901 18.1523 14.8383C19.5987 14.3864 20.8662 13.491 21.7754 12.2787Z" fill="#00FFB6" stroke="#0A0D14"/>
</svg>
